Coordinates
version=1
nRows=17
nColumns=24
inDegrees=yes

Units are S.I. units (second, meters, Newtons, ...)
Angles are in degrees.

endheader
time	pelvis_tilt	pelvis_list	pelvis_rotation	pelvis_tx	pelvis_ty	pelvis_tz	hip_flexion_r	hip_adduction_r	hip_rotation_r	knee_angle_r	ankle_angle_r	subtalar_angle_r	mtp_angle_r	hip_flexion_l	hip_adduction_l	hip_rotation_l	knee_angle_l	ankle_angle_l	subtalar_angle_l	mtp_angle_l	lumbar_extension	lumbar_bending	lumbar_rotation
      1.85500000	     11.36816551	     -5.37577725	      7.66774843	      0.27431939	      0.95456470	      0.01711768	     -6.45247060	     10.72046496	    -12.96557498	    -11.49541957	     18.74584791	    -10.27328104	     14.67202680	      7.04455200	     -9.38905254	     -0.49124734	    -62.95260652	     13.35703191	    -11.75066815	     26.99535641	    -17.27243772	      8.52793881	     -0.10689079
      1.86000000	     11.58795935	     -5.10743614	      7.59154273	      0.27995842	      0.95575460	      0.01752174	     -7.34374449	     10.56457431	    -12.75944557	    -11.03971483	     18.73904629	    -10.23969531	     14.67015637	      7.08451393	     -9.08080243	     -0.81189915	    -62.09506942	     13.83182635	    -11.48054746	     26.83006740	    -17.52926107	      8.24005380	     -0.10246113
      1.86500000	     11.82639290	     -4.78207486	      7.54840474	      0.28558845	      0.95696608	      0.01780693	     -8.25624388	     10.33998780	    -12.66836884	    -10.59397162	     18.75735170	    -10.11571773	     14.68920208	      7.07253201	     -8.68073632	     -1.08812685	    -61.14391370	     14.20138295	    -11.41872125	     26.58615432	    -17.80713907	      7.90407127	     -0.16519734
      1.87000000	     12.04883206	     -4.46110675	      7.49574128	      0.29119101	      0.95809714	      0.01808852	     -9.13567737	     10.11075926	    -12.59086014	    -10.17498117	     18.81687271	     -9.96538752	     14.71603178	      7.06002131	     -8.28051644	     -1.37101843	    -60.13598336	     14.54594463	    -11.34195621	     26.33940200	    -18.06958929	      7.56995243	     -0.21194631
      1.87500000	     12.26420426	     -4.13154117	      7.42895590	      0.29678675	      0.95918768	      0.01836358	     -9.99722194	      9.86173696	    -12.54366054	     -9.77741245	     18.85691195	     -9.77432898	     14.74547451	      7.02446046	     -7.87031529	     -1.68105947	    -59.05239845	     14.86778495	    -11.32458588	     26.05615416	    -18.32582326	      7.22272706	     -0.27456718
      1.88000000	     12.45281483	     -3.79817668	      7.35443991	      0.30236858	      0.96019208	      0.01862527	    -10.81550017	      9.59794580	    -12.51276336	     -9.40690136	     18.93030422	     -9.56688870	     14.77889509	      6.99574683	     -7.44787339	     -1.99593066	    -57.90605583	     15.15749405	    -11.32481470	     25.77632996	    -18.55285010	      6.86804754	     -0.32885590
      1.88500000	     12.64933912	     -3.46105965	      7.26524361	      0.30793576	      0.96116899	      0.01887863	    -11.62786187	      9.31993605	    -12.52342005	     -9.06265817	     18.98002780	     -9.31415159	     14.81034657	      6.92645395	     -7.02257621	     -2.33771079	    -56.68160665	     15.41560529	    -11.37149542	     25.45996080	    -18.79198368	      6.50669201	     -0.37711485
      1.89000000	     12.82783628	     -3.12425748	      7.16811924	      0.31348541	      0.96205991	      0.01913353	    -12.40919503	      9.03517826	    -12.53166029	     -8.73678751	     19.07194084	     -9.05711229	     14.84248854	      6.85466240	     -6.59370920	     -2.68637382	    -55.39452973	     15.63861283	    -11.44415674	     25.16153783	    -19.01244778	      6.14002189	     -0.42204743
      1.89500000	     13.00140954	     -2.78640156	      7.05814314	      0.31902241	      0.96288737	      0.01937934	    -13.17034756	      8.74001848	    -12.55144868	     -8.43822903	     19.17996156	     -8.77777817	     14.87308520	      6.76008274	     -6.16219679	     -3.05480798	    -54.03760337	     15.82935135	    -11.54473029	     24.88201128	    -19.22810160	      5.76999698	     -0.46094290
      1.90000000	     13.16262324	     -2.44184722	      6.93745008	      0.32456545	      0.96365791	      0.01961371	    -13.90611046	      8.42803940	    -12.59867079	     -8.16277884	     19.29661766	     -8.47461049	     14.89987805	      6.64484387	     -5.71962206	     -3.43971151	    -52.60005271	     15.97855515	    -11.68161998	     24.62260823	    -19.42928708	      5.38944281	     -0.49272193
      1.90500000	     13.33333290	     -2.10279615	      6.79959086	      0.33008231	      0.96437563	      0.01985082	    -14.63585917	      8.11271519	    -12.64890045	     -7.91244953	     19.43378219	     -8.15206379	     14.92306985	      6.48993298	     -5.28441935	     -3.84731663	    -51.08972692	     16.09228380	    -11.84467133	     24.39309651	    -19.64462497	      5.01093155	     -0.51351365
      1.91000000	     13.49641286	     -1.75622790	      6.65214419	      0.33562460	      0.96504034	      0.02008376	    -15.35089493	      7.78250048	    -12.73069019	     -7.67728818	     19.57764148	     -7.80407643	     14.94175320	      6.30514017	     -4.83942800	     -4.27750984	    -49.49363106	     16.16578903	    -12.02592439	     24.18857275	    -19.84857278	      4.61933485	     -0.52491444
      1.91500000	     13.66369731	     -1.41595926	      6.48932484	      0.34116388	      0.96564969	      0.02031648	    -16.05584726	      7.44964551	    -12.81549718	     -7.46591275	     19.73501518	     -7.43933868	     14.95379519	      6.08221749	     -4.39986239	     -4.72734724	    -47.82014588	     16.20117268	    -12.21962195	     24.01960107	    -20.05632268	      4.22989341	     -0.52130172
      1.92000000	     13.83583819	     -1.07100802	      6.31151961	      0.34671794	      0.96620984	      0.02052473	    -16.75577641	      7.10111582	    -12.91495436	     -7.27548792	     19.90967977	     -7.05375960	     14.95910244	      5.81395654	     -3.95161550	     -5.20266786	    -46.06018595	     16.19888343	    -12.41430982	     23.88685782	    -20.26716363	      3.83631157	     -0.50809264
      1.92500000	     14.01295836	     -0.73297303	      6.11514662	      0.35227060	      0.96671320	      0.02075948	    -17.44856296	      6.75162245	    -13.00778109	     -7.10399237	     20.09949022	     -6.65868927	     14.95814829	      5.50418384	     -3.51210555	     -5.71124206	    -44.21719048	     16.15947688	    -12.61527792	     23.79465197	    -20.48358815	      3.43978971	     -0.47880096
      1.93000000	     14.20637276	     -0.38828321	      5.92845934	      0.35787239	      0.96718393	      0.02094330	    -18.16494533	      6.39593865	    -13.17824062	     -6.92059543	     20.28494663	     -6.22962062	     14.93861364	      5.13602841	     -3.06063124	     -6.22381219	    -42.28561873	     16.05916621	    -12.78222710	     23.74919020	    -20.71005939	      3.04275900	     -0.43987479
      1.93500000	     14.40554428	     -0.05653171	      5.71574835	      0.36346120	      0.96759676	      0.02113189	    -18.86363791	      6.03723080	    -13.30771010	     -6.78153333	     20.47191870	     -5.78582521	     14.90260522	      4.72378254	     -2.61543672	     -6.76454177	    -40.26880755	     15.92912011	    -12.93330096	     23.75980571	    -20.94348249	      2.65364654	     -0.41465348
